<svg id="svg" version="1.1" xmlns="http://www.w3.org/2000/svg" xmlns:xlink="http://www.w3.org/1999/xlink" width="400" height="400" viewBox="0, 0, 400,400"><g id="svgg"><path id="path0" d="M188.500 56.777 C 179.393 57.491,173.605 58.142,169.750 58.886 C 168.719 59.086,167.313 59.357,166.625 59.489 C 165.938 59.621,164.644 59.856,163.750 60.010 C 161.490 60.401,154.265 62.124,152.250 62.753 C 151.906 62.860,150.781 63.191,149.750 63.489 C 147.584 64.113,141.363 66.165,140.625 66.499 C 140.350 66.623,139.585 66.900,138.924 67.114 C 137.413 67.604,131.862 69.839,129.875 70.758 C 129.050 71.140,127.700 71.756,126.875 72.128 C 124.150 73.356,120.146 75.324,118.999 76.000 C 118.378 76.366,116.793 77.237,115.475 77.934 C 109.796 80.941,99.012 88.248,94.125 92.400 C 84.114 100.906,75.038 110.428,69.903 117.813 L 68.730 119.500 70.177 119.491 C 70.974 119.486,72.750 119.324,74.125 119.132 C 75.500 118.939,78.144 118.599,80.000 118.377 C 81.856 118.154,83.855 117.866,84.441 117.736 C 87.556 117.047,87.965 117.503,86.252 119.750 C 85.885 120.231,84.701 121.806,83.621 123.250 C 82.541 124.694,80.851 126.888,79.866 128.125 C 77.431 131.184,72.873 137.505,70.582 141.000 C 69.546 142.581,68.386 144.325,68.006 144.875 C 67.167 146.088,64.000 151.727,64.000 152.008 C 64.000 152.118,63.916 152.246,63.813 152.292 C 63.332 152.505,57.216 165.490,56.157 168.547 C 55.951 169.140,55.428 170.581,54.995 171.750 C 53.959 174.546,52.919 178.002,53.069 178.153 C 53.135 178.219,53.962 177.974,54.907 177.609 C 57.086 176.768,58.640 176.196,61.000 175.368 C 62.031 175.006,63.100 174.616,63.375 174.500 C 65.620 173.559,66.030 174.040,64.932 176.326 C 63.758 178.769,63.404 179.583,62.623 181.625 C 62.255 182.588,61.854 183.600,61.732 183.875 C 60.995 185.532,59.222 190.751,58.292 194.000 C 57.997 195.031,57.522 196.662,57.237 197.625 C 56.952 198.588,56.607 199.881,56.470 200.500 C 55.560 204.611,55.302 205.893,55.013 207.750 C 54.896 208.506,54.669 209.856,54.510 210.750 C 52.669 221.085,52.276 240.327,53.738 248.500 C 53.874 249.256,54.107 251.000,54.257 252.375 C 54.722 256.641,54.700 256.618,56.625 254.831 C 57.313 254.193,59.108 252.535,60.615 251.148 C 64.779 247.313,67.118 245.127,70.000 242.376 C 71.444 240.997,73.406 239.157,74.361 238.285 C 76.158 236.646,82.164 230.990,86.748 226.620 C 88.193 225.243,90.219 223.335,91.250 222.381 C 92.281 221.427,94.198 219.629,95.511 218.386 C 96.823 217.142,98.735 215.347,99.761 214.397 C 100.786 213.446,106.772 207.540,113.064 201.272 L 124.503 189.875 133.064 189.798 C 137.772 189.755,141.991 189.788,142.438 189.872 L 143.250 190.023 143.250 213.410 L 143.250 236.797 139.158 240.961 C 121.187 259.247,114.705 265.933,114.163 266.743 C 113.802 267.283,113.750 268.295,113.750 274.767 C 113.750 283.080,113.926 282.316,111.722 283.573 C 110.656 284.181,109.970 284.864,108.599 286.678 C 107.221 288.501,106.366 294.277,107.227 295.945 C 107.349 296.181,107.657 296.881,107.912 297.500 C 108.539 299.023,111.284 301.778,112.875 302.479 C 125.108 307.877,135.041 292.370,124.624 284.138 C 122.638 282.568,122.750 283.005,122.750 276.812 L 122.750 271.219 128.810 265.047 C 132.144 261.652,138.920 254.796,143.868 249.810 C 148.817 244.823,153.060 240.380,153.297 239.935 C 153.697 239.184,153.730 237.383,153.740 215.329 C 153.746 200.499,153.842 191.291,153.994 190.891 C 154.278 190.143,156.788 190.017,161.786 190.500 C 165.712 190.879,165.679 190.868,168.883 192.938 C 177.261 198.352,183.564 204.210,188.314 211.000 C 188.555 211.344,189.206 212.244,189.761 213.000 C 190.316 213.756,190.876 214.600,191.006 214.875 C 191.135 215.150,191.496 215.786,191.808 216.289 C 192.504 217.412,193.983 219.904,194.455 220.750 C 194.647 221.094,195.414 222.781,196.160 224.500 C 196.906 226.219,197.616 227.850,197.739 228.125 C 197.861 228.400,198.149 229.075,198.379 229.625 C 198.609 230.175,199.067 230.827,199.398 231.074 L 200.000 231.523 200.000 215.949 C 200.000 207.383,200.075 189.477,200.167 176.157 C 200.333 151.940,200.333 151.938,199.830 152.207 C 199.465 152.403,199.248 152.398,199.040 152.190 C 198.826 151.976,198.427 151.984,197.440 152.225 C 193.252 153.248,192.221 153.830,189.297 156.819 C 185.382 160.822,183.520 162.857,176.625 170.663 C 172.732 175.070,171.464 176.233,170.025 176.715 C 169.408 176.922,160.841 177.000,138.703 177.000 C 109.185 177.000,108.201 177.015,107.303 177.478 C 106.234 178.029,101.347 182.990,92.750 192.251 C 91.031 194.103,88.974 196.303,88.178 197.141 C 85.857 199.586,85.841 199.619,86.360 200.975 C 92.073 215.886,73.298 226.141,64.437 212.948 C 58.924 204.740,66.333 193.489,76.674 194.366 L 78.472 194.518 79.549 193.445 C 81.307 191.692,87.963 184.794,90.233 182.373 C 91.392 181.137,93.304 179.110,94.483 177.869 C 95.661 176.628,97.661 174.483,98.926 173.102 C 101.349 170.459,102.588 169.602,105.343 168.664 C 106.854 168.149,107.289 168.140,136.844 168.008 L 166.812 167.875 167.921 166.625 C 170.825 163.349,174.000 158.778,174.000 157.872 C 174.000 157.333,171.535 154.750,171.020 154.750 C 170.796 154.750,169.813 155.247,168.837 155.855 C 166.685 157.194,164.141 158.382,161.875 159.108 C 155.593 161.118,148.080 160.820,142.000 158.319 C 128.162 152.628,121.571 141.407,124.234 128.077 C 124.952 124.482,124.876 124.152,123.083 123.120 C 121.617 122.275,116.783 119.770,112.375 117.570 C 109.129 115.951,108.329 115.567,103.625 113.368 C 98.647 111.041,98.444 110.926,98.877 110.684 C 99.261 110.469,101.738 110.756,103.750 111.249 C 104.231 111.366,105.300 111.590,106.125 111.747 C 106.950 111.903,108.188 112.182,108.875 112.367 C 109.563 112.551,110.744 112.834,111.500 112.995 C 112.256 113.156,113.156 113.378,113.500 113.488 C 113.844 113.598,114.744 113.819,115.500 113.979 C 119.346 114.795,129.900 118.069,132.875 119.370 C 133.287 119.550,134.244 119.957,135.000 120.273 C 135.756 120.589,136.782 121.079,137.280 121.361 C 140.675 123.289,147.956 127.470,148.712 127.926 C 149.214 128.228,149.794 128.560,150.000 128.663 C 150.400 128.863,154.121 131.088,154.750 131.503 C 154.956 131.640,155.381 131.862,155.693 131.997 C 156.006 132.132,156.866 132.629,157.606 133.102 C 158.930 133.949,161.807 135.611,164.500 137.086 C 168.700 139.386,168.060 138.959,176.675 145.210 C 180.715 148.141,181.322 148.504,181.698 148.213 C 181.933 148.031,182.800 147.309,183.625 146.607 C 185.326 145.161,187.344 143.750,187.712 143.750 C 187.847 143.750,187.996 143.666,188.042 143.563 C 188.255 143.082,191.885 141.613,194.938 140.772 L 196.000 140.480 196.007 137.177 C 196.097 94.112,195.946 56.871,195.681 56.702 C 195.308 56.465,192.040 56.499,188.500 56.777 M138.636 132.313 C 136.647 138.615,139.373 145.985,144.629 148.520 C 146.137 149.248,150.035 150.162,150.474 149.891 C 150.577 149.827,151.345 149.665,152.180 149.531 C 155.207 149.043,160.000 145.787,160.000 144.218 C 160.000 144.045,156.635 141.750,156.382 141.750 C 156.325 141.750,154.613 140.779,152.577 139.593 C 150.541 138.407,148.369 137.153,147.750 136.807 C 146.670 136.203,143.085 134.144,142.209 133.625 C 139.222 131.855,138.826 131.710,138.636 132.313 M190.438 173.744 C 192.754 177.163,186.105 184.394,183.261 181.549 C 181.878 180.167,182.478 178.461,185.348 175.611 C 188.168 172.811,189.479 172.330,190.438 173.744 M129.071 200.554 C 128.073 201.403,127.354 202.123,122.893 206.750 C 118.329 211.484,116.457 213.564,115.709 214.736 L 115.000 215.848 114.990 221.861 L 114.980 227.875 108.832 234.105 L 102.683 240.334 101.904 240.019 C 101.476 239.845,100.563 239.471,99.875 239.187 C 98.853 238.765,98.052 238.667,95.481 238.648 L 92.337 238.625 90.223 239.672 C 83.038 243.233,81.545 252.549,87.245 258.257 C 91.028 262.044,96.238 262.953,100.967 260.650 C 105.064 258.655,107.218 255.244,107.438 250.401 L 107.576 247.375 109.347 245.500 C 110.321 244.469,115.784 238.937,121.486 233.207 C 127.189 227.478,131.936 222.584,132.035 222.332 C 132.256 221.770,132.311 201.617,132.094 200.531 C 131.867 199.397,130.420 199.408,129.071 200.554 M73.359 202.198 C 71.202 203.401,70.499 204.495,70.510 206.625 C 70.529 210.262,74.441 212.634,77.500 210.862 C 79.500 209.704,80.527 206.928,79.734 204.829 C 78.834 202.448,75.430 201.043,73.359 202.198 M167.498 232.063 C 167.497 260.631,167.583 258.696,166.250 260.057 C 164.571 261.772,162.553 263.992,159.371 267.625 C 157.324 269.962,155.532 271.955,155.387 272.053 C 155.226 272.163,155.077 274.205,154.999 277.375 C 154.873 282.550,154.791 282.980,153.924 282.996 C 152.258 283.028,147.506 286.759,146.377 288.921 C 146.104 289.446,145.822 289.931,145.751 290.000 C 144.303 291.406,144.269 297.938,145.694 301.020 C 151.404 313.369,170.613 309.200,170.559 295.624 C 170.542 291.416,169.325 288.870,165.708 285.475 L 163.418 283.326 163.761 279.861 L 164.103 276.396 168.220 271.761 C 170.484 269.211,173.245 266.133,174.356 264.920 C 175.466 263.707,176.512 262.469,176.679 262.170 C 176.911 261.753,176.984 255.968,176.991 237.608 L 177.000 213.591 174.813 211.585 C 170.779 207.887,168.236 205.750,167.866 205.750 C 167.547 205.750,167.500 209.118,167.498 232.063 M97.496 244.919 C 98.818 245.170,100.825 247.290,101.218 248.852 C 102.762 254.983,93.601 258.262,90.678 252.625 C 88.793 248.989,92.145 243.962,96.000 244.643 C 96.344 244.704,97.017 244.828,97.496 244.919 M159.603 290.034 C 165.763 291.651,163.994 301.250,157.537 301.250 C 150.767 301.250,149.574 291.433,156.151 289.845 C 157.389 289.546,157.837 289.571,159.603 290.034 " stroke="none" fill="#27848b" fill-rule="evenodd"></path><path id="path1" d="M204.563 56.772 C 204.315 57.032,204.250 65.783,204.250 98.808 C 204.250 131.956,204.314 140.536,204.563 140.613 C 204.734 140.666,205.887 141.013,207.125 141.383 C 210.835 142.491,213.683 144.121,217.033 147.050 C 219.034 148.799,218.935 148.793,220.842 147.296 C 221.685 146.634,222.994 145.680,223.750 145.177 C 225.963 143.702,228.057 142.223,229.927 140.813 C 230.520 140.366,231.080 140.000,231.174 140.000 C 231.267 140.000,231.575 139.789,231.859 139.532 C 232.143 139.274,232.881 138.784,233.500 138.442 C 234.119 138.100,235.019 137.597,235.500 137.324 C 235.981 137.050,237.050 136.455,237.875 136.001 C 239.618 135.042,241.346 134.007,243.167 132.833 C 243.878 132.375,244.529 132.000,244.613 132.000 C 244.698 132.000,245.860 131.341,247.196 130.536 C 248.532 129.732,251.088 128.251,252.875 127.245 C 254.662 126.240,256.595 125.099,257.170 124.709 C 257.745 124.319,258.309 124.000,258.425 124.000 C 258.540 124.000,259.042 123.723,259.541 123.383 C 260.545 122.701,265.810 120.000,266.136 120.000 C 266.249 120.000,266.800 119.790,267.359 119.534 C 269.081 118.745,271.049 118.000,271.412 118.000 C 271.602 118.000,271.952 117.890,272.191 117.755 C 272.571 117.540,273.726 117.160,278.750 115.601 C 282.372 114.476,286.690 113.403,291.375 112.462 C 293.438 112.048,295.575 111.604,296.125 111.476 C 296.675 111.349,297.841 111.132,298.716 110.994 C 299.592 110.856,300.397 110.689,300.506 110.621 C 300.616 110.554,300.875 110.564,301.083 110.644 C 301.473 110.793,300.793 111.750,300.297 111.750 C 300.185 111.750,299.651 111.960,299.109 112.216 C 298.568 112.473,296.887 113.228,295.375 113.895 C 293.863 114.561,292.006 115.436,291.250 115.838 C 290.494 116.241,287.962 117.548,285.625 118.744 C 283.288 119.940,280.981 121.143,280.500 121.416 C 280.019 121.690,278.876 122.330,277.961 122.840 C 275.649 124.127,275.699 124.020,276.144 126.768 C 277.514 135.225,277.096 139.082,274.223 144.469 C 265.960 159.964,246.159 165.065,231.428 155.492 C 229.527 154.257,229.745 154.231,227.981 155.913 C 226.401 157.421,226.266 157.817,226.908 159.075 C 227.740 160.708,232.697 167.113,233.563 167.673 C 233.734 167.784,247.319 167.935,263.750 168.007 C 290.350 168.125,293.748 168.184,294.750 168.542 C 297.351 169.471,298.675 170.250,299.861 171.546 C 300.529 172.277,302.887 174.785,305.101 177.119 C 307.314 179.453,309.800 182.083,310.625 182.962 C 314.828 187.444,321.557 194.002,322.057 194.103 C 322.369 194.166,323.758 194.281,325.144 194.357 C 336.429 194.982,341.705 206.630,334.440 214.883 C 328.514 221.617,317.035 219.410,313.589 210.875 C 312.772 208.852,312.573 204.668,313.214 203.000 C 313.774 201.542,313.925 201.155,314.226 200.410 C 314.571 199.555,314.631 199.648,311.881 196.750 C 310.772 195.581,309.023 193.682,307.995 192.528 C 306.966 191.375,305.271 189.575,304.227 188.528 C 303.183 187.482,300.503 184.689,298.272 182.322 C 296.042 179.956,293.845 177.790,293.391 177.510 C 292.573 177.004,292.326 177.000,262.220 176.999 C 241.675 176.998,231.552 176.912,230.875 176.733 C 229.392 176.340,228.434 175.849,227.889 175.202 C 225.875 172.810,216.278 161.960,214.665 160.250 C 207.630 152.794,207.096 152.447,202.104 152.080 L 200.333 151.950 200.167 176.162 C 199.957 206.611,199.952 234.335,200.156 234.865 C 200.366 235.414,201.000 234.218,201.000 233.271 C 201.000 232.902,201.094 232.493,201.208 232.362 C 201.322 232.232,201.560 231.619,201.735 231.000 C 203.331 225.386,207.311 217.604,211.708 211.500 C 217.928 202.866,229.712 192.566,235.288 190.889 C 236.690 190.467,245.730 190.130,246.250 190.479 C 246.578 190.700,246.641 193.821,246.750 215.178 C 246.863 237.327,246.914 239.696,247.290 240.381 C 247.518 240.796,249.599 242.996,251.915 245.268 C 256.381 249.651,269.890 263.317,274.810 268.430 L 277.750 271.485 277.750 277.114 L 277.750 282.744 276.688 283.399 C 272.862 285.760,270.628 291.372,271.859 295.528 C 274.606 304.798,287.074 306.475,292.102 298.250 C 293.190 296.471,293.972 292.616,293.498 291.369 C 293.361 291.011,293.250 290.485,293.250 290.202 C 293.250 288.480,290.604 284.922,288.188 283.394 L 286.750 282.485 286.750 274.729 L 286.750 266.973 284.063 264.277 C 282.584 262.794,277.212 257.323,272.125 252.119 C 267.038 246.915,261.547 241.308,259.924 239.660 L 256.973 236.662 257.063 213.580 C 257.120 198.906,257.243 190.407,257.399 190.251 C 257.551 190.099,261.115 190.001,266.703 189.994 L 275.760 189.982 276.568 190.601 C 277.012 190.941,280.975 194.900,285.375 199.399 C 289.775 203.898,293.873 208.039,294.482 208.602 C 295.091 209.165,296.382 210.356,297.351 211.250 C 298.320 212.144,300.184 213.895,301.494 215.141 C 302.803 216.387,304.775 218.240,305.875 219.259 C 306.975 220.279,309.000 222.193,310.375 223.514 C 311.750 224.835,313.719 226.699,314.750 227.655 C 315.781 228.612,318.762 231.420,321.375 233.894 C 323.988 236.368,326.797 239.008,327.618 239.759 C 328.439 240.510,330.183 242.137,331.493 243.375 C 332.804 244.613,334.720 246.397,335.750 247.340 C 336.781 248.283,339.239 250.590,341.211 252.465 C 345.118 256.181,345.452 256.445,345.609 255.951 C 345.821 255.290,346.541 249.254,346.886 245.250 C 347.342 239.956,347.431 224.613,347.027 220.875 C 346.200 213.226,345.140 206.130,344.337 202.875 C 343.014 197.516,340.987 190.292,340.268 188.375 C 339.346 185.917,337.455 181.111,337.106 180.337 C 336.910 179.904,336.750 179.485,336.750 179.407 C 336.750 179.221,335.585 176.634,334.976 175.467 C 334.097 173.785,336.125 173.796,339.875 175.494 C 341.457 176.210,347.041 178.301,347.250 178.255 C 347.531 178.193,346.592 174.895,345.505 172.125 C 344.873 170.513,344.000 168.088,344.000 167.943 C 344.000 167.766,342.804 165.092,341.975 163.414 C 341.714 162.885,341.500 162.343,341.500 162.208 C 341.500 161.949,337.601 154.083,336.316 151.750 C 333.784 147.151,328.781 139.232,326.998 137.000 C 326.504 136.381,325.267 134.694,324.249 133.250 C 323.232 131.806,321.212 129.072,319.762 127.174 C 318.312 125.276,316.474 122.801,315.677 121.674 C 314.881 120.547,314.009 119.347,313.740 119.008 C 312.783 117.804,313.053 117.407,314.688 117.611 C 315.478 117.709,317.081 117.886,318.250 118.003 C 320.547 118.234,324.229 118.729,328.686 119.408 C 332.423 119.977,332.404 120.087,329.261 116.129 C 314.689 97.773,298.334 84.386,278.250 74.371 C 274.300 72.402,270.415 70.541,269.625 70.240 C 269.350 70.135,268.592 69.814,267.940 69.525 C 267.289 69.236,266.608 69.000,266.428 69.000 C 266.247 69.000,265.993 68.894,265.862 68.765 C 265.518 68.424,255.287 64.741,252.563 63.978 C 252.116 63.853,251.384 63.645,250.938 63.516 C 250.491 63.387,249.394 63.090,248.500 62.857 C 247.606 62.623,246.650 62.349,246.375 62.248 C 244.953 61.726,236.328 59.818,231.750 59.014 C 230.856 58.857,229.563 58.626,228.875 58.501 C 228.188 58.377,226.331 58.152,224.750 58.003 C 223.169 57.853,221.144 57.612,220.250 57.467 C 219.356 57.322,216.881 57.104,214.750 56.983 C 205.155 56.437,204.888 56.432,204.563 56.772 M259.691 132.696 C 259.041 133.069,257.353 134.070,255.941 134.919 C 254.530 135.767,252.869 136.724,252.250 137.044 C 251.631 137.363,251.069 137.689,251.000 137.768 C 250.931 137.847,250.706 137.985,250.500 138.075 C 250.294 138.166,249.675 138.517,249.125 138.856 C 246.960 140.192,245.791 140.865,243.750 141.949 C 242.581 142.570,241.314 143.294,240.934 143.558 L 240.243 144.039 240.745 144.743 C 242.262 146.874,244.240 148.278,247.125 149.272 C 248.337 149.690,253.163 149.745,254.025 149.351 C 256.869 148.050,257.560 147.607,258.851 146.253 C 262.101 142.847,263.304 137.097,261.691 132.688 C 261.381 131.840,261.180 131.841,259.691 132.696 M268.563 199.666 C 267.973 199.904,268.127 221.677,268.725 222.625 C 268.986 223.037,272.370 226.581,276.245 230.500 C 280.121 234.419,285.420 239.779,288.021 242.412 L 292.750 247.199 292.750 249.337 C 292.750 253.010,293.458 255.292,295.246 257.387 C 296.415 258.757,299.525 261.000,300.254 261.000 C 300.511 261.000,300.790 261.113,300.875 261.250 C 300.960 261.387,301.344 261.500,301.727 261.500 C 302.111 261.500,302.798 261.630,303.253 261.789 C 305.556 262.591,310.697 260.788,313.119 258.326 C 315.572 255.834,317.327 250.764,316.529 248.475 C 316.375 248.035,316.250 247.455,316.250 247.186 C 316.250 246.094,314.695 243.465,313.126 241.904 C 309.438 238.234,304.672 237.321,299.875 239.367 C 299.325 239.602,298.617 239.895,298.301 240.020 C 297.782 240.225,297.145 239.665,291.614 234.142 L 285.500 228.037 285.500 221.806 L 285.500 215.575 284.711 214.475 C 282.887 211.930,271.797 200.560,270.450 199.854 C 269.769 199.497,269.137 199.434,268.563 199.666 M323.000 202.563 C 318.708 205.141,320.419 211.344,325.406 211.285 C 329.475 211.236,331.601 206.626,328.948 203.603 C 327.196 201.609,325.177 201.255,323.000 202.563 M231.564 206.353 C 230.994 206.804,229.424 208.187,228.076 209.428 C 226.728 210.668,225.222 212.031,224.728 212.456 L 223.832 213.230 223.675 236.594 C 223.487 264.669,223.272 261.891,225.846 264.687 C 226.962 265.900,228.831 267.949,230.000 269.241 C 231.169 270.534,232.294 271.775,232.500 271.999 C 232.706 272.223,233.695 273.322,234.697 274.441 L 236.519 276.476 236.758 278.551 C 236.889 279.692,236.994 281.356,236.991 282.250 L 236.987 283.875 235.972 284.500 C 224.730 291.425,229.833 308.435,243.125 308.347 C 256.795 308.257,260.798 289.526,248.375 283.783 C 245.630 282.514,245.893 282.839,245.712 280.492 C 245.623 279.327,245.538 277.025,245.523 275.375 L 245.496 272.375 241.705 268.250 C 239.620 265.981,236.809 262.944,235.459 261.500 L 233.004 258.875 233.002 232.327 C 233.001 217.726,232.910 205.724,232.800 205.656 C 232.690 205.588,232.134 205.901,231.564 206.353 M306.232 244.805 C 309.123 245.791,311.910 250.349,310.250 251.375 C 310.113 251.460,310.000 251.728,310.000 251.970 C 310.000 253.264,306.650 255.742,304.893 255.748 C 301.929 255.757,299.016 252.913,299.008 250.000 C 298.998 246.590,303.010 243.705,306.232 244.805 M244.125 289.822 C 248.774 291.285,250.331 295.931,247.299 299.298 C 243.977 302.988,237.635 301.185,236.859 296.331 C 236.247 292.501,240.508 288.684,244.125 289.822 " stroke="none" fill="#d3572f" fill-rule="evenodd"></path><path id="path2" d="M0.000 200.000 L 0.000 400.000 200.000 400.000 L 400.000 400.000 400.000 200.000 L 400.000 0.000 200.000 0.000 L 0.000 0.000 0.000 200.000 M216.049 56.649 C 221.573 57.046,227.804 57.785,231.625 58.496 C 232.450 58.649,233.744 58.881,234.500 59.009 C 235.256 59.138,236.325 59.346,236.875 59.471 C 237.425 59.596,238.269 59.778,238.750 59.875 C 248.464 61.838,263.994 66.989,272.872 71.193 C 290.901 79.728,303.640 88.500,316.849 101.476 C 320.435 104.997,322.167 106.873,326.338 111.750 C 327.397 112.988,329.897 116.143,330.498 117.000 C 330.835 117.481,331.316 118.098,331.565 118.370 C 332.046 118.894,332.401 119.932,332.177 120.157 C 332.103 120.230,330.655 120.097,328.959 119.862 C 327.263 119.626,325.087 119.343,324.125 119.232 C 323.163 119.121,321.531 118.906,320.500 118.754 C 318.842 118.509,314.691 118.016,314.188 118.004 C 313.497 117.988,314.902 120.076,320.495 127.375 C 321.127 128.200,322.649 130.281,323.877 132.000 C 325.104 133.719,326.463 135.575,326.897 136.125 C 327.574 136.982,331.268 142.413,332.177 143.886 C 337.948 153.240,342.560 162.625,345.624 171.250 C 346.137 172.694,346.649 174.100,346.762 174.375 C 348.932 179.666,348.975 179.652,340.625 176.264 C 336.311 174.514,334.924 174.259,335.443 175.313 C 336.034 176.513,337.489 180.023,338.733 183.250 C 339.449 185.106,340.151 186.906,340.294 187.250 C 340.647 188.099,341.709 191.342,342.135 192.875 C 342.326 193.563,342.719 194.969,343.007 196.000 C 348.082 214.116,349.225 234.955,346.221 254.585 C 345.772 257.523,345.931 257.584,340.496 252.396 C 339.188 251.147,337.331 249.410,336.371 248.536 C 335.411 247.662,333.665 246.030,332.491 244.911 C 330.613 243.119,327.258 239.977,321.379 234.501 C 320.419 233.607,318.844 232.136,317.879 231.232 C 316.914 230.329,315.169 228.698,314.001 227.607 C 312.834 226.517,310.584 224.368,309.001 222.832 C 307.419 221.295,305.513 219.495,304.764 218.832 C 300.111 214.706,292.914 207.685,280.627 195.286 L 275.878 190.494 266.752 190.559 L 257.625 190.625 257.561 213.597 L 257.497 236.568 261.053 240.222 C 265.911 245.213,271.383 250.788,279.851 259.373 L 287.000 266.622 287.000 274.301 C 287.000 282.524,287.077 283.000,288.408 283.000 C 288.935 283.000,291.673 285.700,292.394 286.929 C 297.792 296.141,288.801 306.881,278.631 303.371 C 269.980 300.385,268.541 288.468,276.195 283.202 L 277.276 282.458 277.201 276.892 L 277.125 271.327 270.625 264.775 C 252.041 246.043,246.978 240.834,246.622 240.083 C 246.275 239.352,246.232 236.625,246.244 216.192 C 246.252 203.505,246.183 192.578,246.091 191.910 L 245.924 190.695 240.900 190.871 C 236.510 191.025,235.733 191.114,234.750 191.581 C 233.703 192.079,228.593 195.248,227.750 195.922 C 227.544 196.087,226.644 196.759,225.750 197.414 C 217.432 203.517,208.649 215.189,203.676 226.750 C 203.241 227.761,201.604 232.766,201.346 233.875 C 200.895 235.811,200.142 236.188,199.724 234.688 C 199.561 234.103,199.178 233.063,198.872 232.375 C 198.566 231.688,198.237 230.791,198.140 230.384 C 198.043 229.976,197.761 229.188,197.512 228.634 C 197.264 228.079,196.549 226.444,195.924 225.000 C 194.236 221.106,191.087 215.523,188.958 212.650 C 188.500 212.031,187.450 210.591,186.625 209.450 C 184.693 206.777,177.494 199.554,174.750 197.534 C 173.581 196.673,172.400 195.804,172.125 195.602 C 170.756 194.594,166.749 192.070,165.874 191.663 C 164.768 191.149,159.432 190.672,156.222 190.801 L 154.375 190.875 154.250 215.125 C 154.142 236.061,154.074 239.465,153.750 240.037 C 153.544 240.401,148.819 245.323,143.250 250.974 C 137.681 256.626,130.904 263.528,128.189 266.313 L 123.253 271.375 123.252 276.927 L 123.250 282.479 124.186 283.177 C 133.598 290.200,129.426 303.881,117.875 303.873 C 106.286 303.866,101.950 288.580,111.937 282.943 L 113.250 282.202 113.251 274.789 C 113.252 266.078,112.891 267.210,117.007 263.000 C 120.072 259.865,135.703 243.838,140.123 239.299 L 142.875 236.472 142.936 213.799 C 142.974 199.685,142.907 190.983,142.758 190.750 C 142.494 190.336,128.590 190.029,125.764 190.374 L 124.375 190.544 114.125 200.838 C 105.067 209.935,101.811 213.096,94.260 220.125 C 93.226 221.088,91.252 222.944,89.873 224.250 C 85.229 228.648,82.623 231.108,79.014 234.500 C 77.039 236.356,75.244 238.052,75.024 238.269 C 74.805 238.486,73.838 239.376,72.875 240.249 C 71.912 241.121,69.885 243.025,68.369 244.480 C 66.853 245.935,64.490 248.153,63.119 249.409 C 61.747 250.666,60.281 252.016,59.861 252.409 C 53.958 257.942,54.524 257.969,53.741 252.114 C 51.232 233.351,52.446 213.063,57.055 196.750 C 57.463 195.306,57.889 193.787,58.003 193.375 C 58.471 191.671,59.218 189.305,59.620 188.250 C 59.856 187.631,60.276 186.506,60.555 185.750 C 61.556 183.032,63.062 179.334,64.053 177.159 C 65.263 174.503,65.140 174.309,62.787 175.174 C 61.873 175.509,60.619 175.958,60.000 176.171 C 59.381 176.384,57.625 177.051,56.098 177.654 C 52.212 179.188,52.140 179.154,53.003 176.211 C 57.602 160.520,66.847 144.019,81.553 125.250 C 83.469 122.805,86.166 119.124,86.503 118.495 C 86.818 117.905,86.580 117.884,83.875 118.259 C 82.912 118.392,81.281 118.613,80.250 118.750 C 79.219 118.887,77.588 119.114,76.625 119.256 C 73.780 119.675,68.640 120.190,68.438 120.076 C 67.818 119.728,68.862 118.170,73.569 112.416 C 84.278 99.326,94.929 90.096,110.875 80.089 C 123.526 72.150,141.272 64.864,157.625 60.895 C 163.738 59.412,163.075 59.550,169.000 58.521 C 179.426 56.711,195.217 55.567,196.200 56.550 C 196.540 56.890,196.645 140.134,196.306 140.668 C 196.204 140.829,195.784 141.039,195.372 141.135 C 190.980 142.163,187.173 144.139,183.385 147.359 C 181.155 149.254,181.488 149.292,178.093 146.762 C 171.607 141.929,167.785 139.348,164.500 137.583 C 161.202 135.811,159.641 134.935,159.000 134.496 C 158.656 134.260,156.969 133.249,155.250 132.249 C 153.531 131.249,151.787 130.234,151.375 129.992 C 149.322 128.791,138.241 122.365,137.334 121.849 C 135.142 120.604,129.048 118.328,122.125 116.170 C 119.599 115.383,109.864 112.979,105.750 112.127 C 101.119 111.167,100.900 111.135,101.088 111.441 C 101.230 111.670,108.823 115.500,109.136 115.500 C 109.281 115.500,114.363 118.039,118.052 119.954 C 126.016 124.088,125.659 123.615,124.593 128.625 C 119.744 151.415,147.830 168.428,168.779 155.391 C 171.072 153.964,171.157 153.967,172.835 155.563 C 174.498 157.143,174.725 157.829,174.033 159.186 C 172.924 161.358,167.897 167.681,166.926 168.124 C 166.572 168.285,155.746 168.420,136.625 168.500 L 106.875 168.625 104.750 169.355 C 102.340 170.183,101.389 171.046,92.747 180.250 C 90.488 182.656,86.453 186.903,83.780 189.688 L 78.920 194.750 76.348 194.750 C 64.591 194.750,58.650 207.022,66.604 214.877 C 76.302 224.455,90.851 214.179,86.021 201.163 L 85.478 199.701 86.086 198.913 C 86.907 197.847,87.142 197.589,90.875 193.618 C 92.662 191.717,95.867 188.298,97.995 186.019 C 103.487 180.139,106.013 177.639,107.009 177.097 C 107.841 176.644,109.101 176.620,138.875 176.500 C 168.247 176.382,169.923 176.351,170.793 175.918 C 171.623 175.505,173.055 174.127,175.130 171.743 C 190.211 154.415,191.872 152.934,197.597 151.706 C 199.994 151.192,205.609 151.908,207.756 153.002 C 209.197 153.736,215.850 160.581,220.788 166.408 C 222.039 167.886,226.936 173.467,228.083 174.723 C 229.697 176.490,227.255 176.361,261.761 176.500 C 291.911 176.621,292.921 176.640,293.636 177.104 C 294.434 177.622,296.561 179.760,299.951 183.452 C 301.126 184.731,303.165 186.877,304.481 188.220 C 307.055 190.846,312.650 196.788,313.971 198.300 C 314.976 199.450,314.979 199.621,314.026 202.332 C 308.896 216.926,330.440 225.241,336.445 210.985 C 339.858 202.881,333.644 194.769,324.012 194.754 L 321.649 194.750 315.876 188.938 C 312.700 185.741,309.339 182.281,308.407 181.250 C 307.475 180.219,305.399 178.016,303.794 176.355 C 302.188 174.694,300.281 172.694,299.556 171.911 C 298.124 170.366,296.592 169.519,294.089 168.887 C 292.745 168.549,288.917 168.500,263.543 168.500 C 246.224 168.500,234.286 168.406,233.920 168.267 C 232.163 167.599,226.000 159.451,226.000 157.796 C 226.000 157.283,227.963 155.095,229.053 154.392 L 229.731 153.955 232.428 155.595 C 244.657 163.031,261.478 160.350,270.256 149.566 C 270.734 148.979,271.255 148.348,271.414 148.165 C 272.377 147.057,274.662 142.934,275.247 141.250 C 275.414 140.769,275.638 140.150,275.744 139.875 C 276.543 137.816,276.702 133.442,276.107 129.875 C 275.118 123.938,275.142 123.858,278.375 122.127 C 279.613 121.464,280.906 120.733,281.250 120.502 C 281.594 120.271,283.450 119.308,285.375 118.361 C 287.300 117.414,289.606 116.240,290.500 115.753 C 291.394 115.265,292.856 114.541,293.750 114.144 C 294.644 113.747,296.106 113.090,297.000 112.684 C 300.872 110.924,300.925 110.933,294.625 112.276 C 293.387 112.540,291.250 112.988,289.875 113.272 C 277.717 115.782,267.987 119.204,259.250 124.041 C 258.631 124.384,256.872 125.415,255.341 126.332 C 253.810 127.249,252.500 128.000,252.429 128.000 C 252.321 128.000,249.729 129.487,248.500 130.254 C 248.294 130.382,247.000 131.132,245.625 131.920 C 244.250 132.708,243.069 133.414,243.000 133.489 C 242.931 133.564,242.594 133.785,242.250 133.981 C 241.906 134.177,240.182 135.162,238.418 136.169 C 236.655 137.176,235.170 138.000,235.120 138.000 C 234.901 138.000,231.554 140.161,230.862 140.750 C 230.442 141.107,229.654 141.669,229.112 141.999 C 228.569 142.329,228.069 142.668,228.000 142.752 C 227.931 142.837,226.806 143.625,225.500 144.505 C 223.193 146.059,220.474 148.053,219.797 148.688 C 219.207 149.241,218.653 149.028,217.053 147.632 C 213.325 144.381,207.412 141.262,204.955 141.252 C 203.678 141.246,203.750 143.802,203.750 98.495 C 203.750 58.789,203.774 56.511,204.188 56.265 C 204.685 55.970,208.161 56.082,216.049 56.649 M140.968 132.411 C 142.017 133.050,143.269 133.792,143.750 134.060 C 144.231 134.329,145.244 134.892,146.000 135.312 C 146.756 135.732,148.275 136.611,149.375 137.266 C 150.475 137.921,152.556 139.121,154.000 139.934 C 161.460 144.129,161.236 143.877,159.357 145.968 C 156.668 148.958,154.103 150.090,149.970 150.110 L 146.815 150.125 144.673 149.039 C 139.155 146.241,136.657 140.330,138.001 133.246 C 138.441 130.927,138.502 130.909,140.968 132.411 M261.961 131.938 C 262.400 132.780,262.978 136.386,262.852 137.500 C 262.333 142.082,261.441 144.270,259.125 146.638 C 254.279 151.592,246.279 151.389,241.438 146.188 C 239.217 143.802,239.213 143.826,242.250 142.254 C 243.965 141.366,245.190 140.691,246.292 140.027 C 247.887 139.066,251.244 137.103,252.625 136.324 C 253.450 135.858,254.575 135.199,255.125 134.858 C 255.675 134.518,256.294 134.167,256.500 134.079 C 256.706 133.991,257.186 133.703,257.566 133.440 C 259.820 131.878,261.610 131.266,261.961 131.938 M188.255 173.764 C 184.870 175.651,182.196 179.907,183.579 181.206 C 185.591 183.097,191.364 178.059,190.506 175.159 C 189.955 173.295,189.548 173.043,188.255 173.764 M275.022 203.474 C 280.000 208.457,284.371 213.166,285.313 214.558 L 286.000 215.575 286.004 221.725 L 286.008 227.875 291.915 233.826 C 296.287 238.230,297.926 239.732,298.223 239.606 C 303.372 237.421,307.734 237.397,310.789 239.535 C 311.154 239.791,311.565 240.000,311.703 240.000 C 312.196 240.000,315.247 243.570,315.858 244.863 C 318.114 249.631,316.943 255.527,313.048 259.007 C 304.674 266.492,291.506 260.231,292.439 249.209 L 292.558 247.792 290.849 245.959 C 289.909 244.950,284.677 239.625,279.222 234.125 C 273.768 228.625,268.990 223.746,268.604 223.282 L 267.904 222.439 267.823 213.532 C 267.713 201.337,267.839 199.303,268.714 199.202 C 270.458 199.000,270.749 199.196,275.022 203.474 M132.282 199.663 C 132.643 200.098,132.954 220.160,132.627 221.937 C 132.506 222.592,130.185 225.059,120.608 234.710 C 106.533 248.893,108.018 247.120,108.005 249.750 C 107.948 260.748,94.785 266.547,87.216 258.908 C 77.716 249.322,87.356 234.187,100.000 238.838 C 101.031 239.217,102.044 239.583,102.252 239.652 C 102.496 239.733,104.074 238.318,106.752 235.617 C 109.019 233.329,111.588 230.764,112.460 229.916 C 114.651 227.786,114.556 228.159,114.598 221.522 C 114.643 214.557,114.447 215.150,117.944 211.375 C 128.707 199.756,130.883 197.978,132.282 199.663 M77.302 201.861 C 80.724 203.290,81.462 207.523,78.766 210.253 C 76.750 212.295,74.515 212.475,72.153 210.786 C 67.190 207.236,71.653 199.500,77.302 201.861 M328.154 202.313 C 331.885 204.817,331.054 210.193,326.717 211.612 C 323.818 212.560,320.004 209.927,320.001 206.975 C 319.996 202.689,324.704 199.997,328.154 202.313 M168.784 205.688 C 170.409 206.998,173.030 209.342,175.615 211.796 L 177.375 213.468 177.449 237.171 C 177.534 264.171,177.735 261.841,175.070 264.777 C 170.429 269.888,167.089 273.606,166.628 274.172 C 166.354 274.508,165.776 275.170,165.343 275.643 C 164.454 276.613,164.346 277.063,164.115 280.750 L 163.950 283.375 165.612 284.722 C 179.423 295.916,164.232 316.254,149.522 306.265 C 143.979 302.501,142.493 293.990,146.362 288.161 C 147.772 286.037,152.528 282.500,153.975 282.500 C 154.332 282.500,154.494 280.776,154.497 276.954 C 154.501 272.300,154.489 272.332,157.465 269.125 C 158.103 268.438,159.513 266.863,160.598 265.625 C 161.683 264.387,163.319 262.586,164.233 261.623 C 165.148 260.659,166.148 259.530,166.455 259.114 L 167.015 258.358 167.153 231.991 C 167.312 201.560,167.138 204.360,168.784 205.688 M233.392 205.855 C 233.476 206.187,233.489 218.084,233.423 232.292 C 233.356 246.500,233.374 258.309,233.463 258.533 C 233.552 258.758,234.983 260.389,236.643 262.158 C 246.867 273.057,245.901 271.499,246.126 277.444 C 246.318 282.522,246.452 283.000,247.685 283.000 C 248.910 283.000,253.021 286.306,254.214 288.250 C 259.855 297.447,253.549 308.896,242.875 308.836 C 229.628 308.762,224.388 292.624,235.039 284.704 L 236.800 283.394 236.661 282.259 C 236.585 281.635,236.445 280.169,236.350 279.000 C 236.157 276.627,236.025 276.412,232.260 272.370 C 227.230 266.971,224.060 263.354,223.564 262.450 L 223.003 261.427 223.131 237.651 C 223.201 224.574,223.257 213.761,223.255 213.622 C 223.248 213.282,224.044 212.458,226.391 210.375 C 227.475 209.412,228.928 208.100,229.619 207.457 C 232.244 205.018,233.092 204.657,233.392 205.855 M94.625 245.162 C 91.367 245.958,89.629 249.290,90.992 252.125 C 93.377 257.086,100.841 255.574,100.865 250.125 C 100.879 247.029,97.613 244.431,94.625 245.162 M302.625 245.508 C 299.792 247.046,298.785 249.561,299.975 252.125 C 301.907 256.285,307.356 256.202,309.510 251.980 C 311.506 248.067,306.529 243.389,302.625 245.508 M156.375 290.231 C 152.058 291.298,150.657 296.162,153.767 299.286 C 156.438 301.969,160.738 301.205,162.509 297.733 C 164.467 293.895,160.615 289.184,156.375 290.231 M241.139 290.363 C 236.981 291.886,235.983 296.771,239.259 299.574 C 243.352 303.078,249.607 299.259,248.125 294.160 C 247.270 291.221,243.860 289.367,241.139 290.363 " stroke="none" fill="#fbfbfb" fill-rule="evenodd"></path>
<path id="path4" d="M204.188 56.265 C 203.774 56.511,203.750 58.789,203.750 98.495 C 203.750 143.802,203.678 141.246,204.955 141.252 C 207.412 141.262,213.325 144.381,217.053 147.632 C 218.653 149.028,219.207 149.241,219.797 148.688 C 220.474 148.053,223.193 146.059,225.500 144.505 C 226.806 143.625,227.931 142.837,228.000 142.752 C 228.069 142.668,228.569 142.329,229.112 141.999 C 229.654 141.669,230.442 141.107,230.862 140.750 C 231.554 140.161,234.901 138.000,235.120 138.000 C 235.170 138.000,236.655 137.176,238.418 136.169 C 240.182 135.162,241.906 134.177,242.250 133.981 C 242.594 133.785,242.931 133.564,243.000 133.489 C 243.069 133.414,244.250 132.708,245.625 131.920 C 247.000 131.132,248.294 130.382,248.500 130.254 C 249.729 129.487,252.321 128.000,252.429 128.000 C 252.500 128.000,253.810 127.249,255.341 126.332 C 264.497 120.847,272.480 117.527,282.875 114.881 C 286.064 114.069,286.523 113.964,289.875 113.272 C 291.250 112.988,293.387 112.540,294.625 112.276 C 299.890 111.154,300.464 111.079,299.187 111.681 C 298.305 112.096,295.534 113.352,293.750 114.144 C 292.856 114.541,291.394 115.265,290.500 115.753 C 289.606 116.240,287.300 117.414,285.375 118.361 C 283.450 119.308,281.594 120.271,281.250 120.502 C 280.906 120.733,279.613 121.464,278.375 122.127 C 275.142 123.858,275.118 123.938,276.107 129.875 C 276.702 133.442,276.543 137.816,275.744 139.875 C 275.638 140.150,275.414 140.769,275.247 141.250 C 274.662 142.934,272.377 147.057,271.414 148.165 C 271.255 148.348,270.734 148.979,270.256 149.566 C 261.478 160.350,244.657 163.031,232.428 155.595 L 229.731 153.955 229.053 154.392 C 227.963 155.095,226.000 157.283,226.000 157.796 C 226.000 159.451,232.163 167.599,233.920 168.267 C 234.286 168.406,246.224 168.500,263.543 168.500 C 288.917 168.500,292.745 168.549,294.089 168.887 C 296.592 169.519,298.124 170.366,299.556 171.911 C 300.281 172.694,302.188 174.694,303.794 176.355 C 305.399 178.016,307.475 180.219,308.407 181.250 C 309.339 182.281,312.700 185.741,315.876 188.938 L 321.649 194.750 324.012 194.754 C 337.726 194.775,342.561 211.185,330.625 217.200 C 321.040 222.031,310.439 212.536,314.026 202.332 C 314.979 199.621,314.976 199.450,313.971 198.300 C 312.650 196.788,307.055 190.846,304.481 188.220 C 303.165 186.877,301.126 184.731,299.951 183.452 C 296.561 179.760,294.434 177.622,293.636 177.104 C 292.921 176.640,291.911 176.621,261.761 176.500 C 227.255 176.361,229.697 176.490,228.083 174.723 C 226.936 173.467,222.039 167.886,220.788 166.408 C 215.850 160.581,209.197 153.736,207.756 153.002 C 206.077 152.147,199.414 151.015,200.125 151.706 C 200.262 151.840,201.162 152.009,202.125 152.081 C 207.109 152.457,207.634 152.799,214.665 160.250 C 216.278 161.960,225.875 172.810,227.889 175.202 C 228.434 175.849,229.392 176.340,230.875 176.733 C 231.552 176.912,241.675 176.998,262.220 176.999 C 292.326 177.000,292.573 177.004,293.391 177.510 C 293.845 177.790,296.042 179.956,298.272 182.322 C 300.503 184.689,303.183 187.482,304.227 188.528 C 305.271 189.575,306.966 191.375,307.995 192.528 C 309.023 193.682,310.772 195.581,311.881 196.750 C 314.631 199.648,314.571 199.555,314.226 200.410 C 313.925 201.155,313.774 201.542,313.214 203.000 C 312.573 204.668,312.772 208.852,313.589 210.875 C 317.035 219.410,328.514 221.617,334.440 214.883 C 341.705 206.630,336.429 194.982,325.144 194.357 C 323.758 194.281,322.369 194.166,322.057 194.103 C 321.557 194.002,314.828 187.444,310.625 182.962 C 309.800 182.083,307.314 179.453,305.101 177.119 C 302.887 174.785,300.529 172.277,299.861 171.546 C 298.675 170.250,297.351 169.471,294.750 168.542 C 293.748 168.184,290.350 168.125,263.750 168.007 C 247.319 167.935,233.734 167.784,233.563 167.673 C 232.697 167.113,227.740 160.708,226.908 159.075 C 226.266 157.817,226.401 157.421,227.981 155.913 C 229.745 154.231,229.527 154.257,231.428 155.492 C 246.160 165.065,265.959 159.965,274.223 144.469 C 277.096 139.082,277.514 135.225,276.144 126.768 C 275.699 124.020,275.649 124.127,277.961 122.840 C 278.876 122.330,280.019 121.690,280.500 121.416 C 280.981 121.143,283.288 119.940,285.625 118.744 C 287.962 117.548,290.494 116.241,291.250 115.838 C 292.006 115.436,293.863 114.561,295.375 113.895 C 296.887 113.228,298.568 112.473,299.109 112.216 C 299.651 111.960,300.185 111.750,300.297 111.750 C 300.793 111.750,301.473 110.793,301.083 110.644 C 300.875 110.564,300.616 110.554,300.506 110.621 C 300.397 110.689,299.592 110.856,298.716 110.994 C 297.841 111.132,296.675 111.349,296.125 111.476 C 295.575 111.604,293.438 112.048,291.375 112.462 C 286.690 113.403,282.372 114.476,278.750 115.601 C 273.726 117.160,272.571 117.540,272.191 117.755 C 271.952 117.890,271.602 118.000,271.412 118.000 C 271.049 118.000,269.081 118.745,267.359 119.534 C 266.800 119.790,266.249 120.000,266.136 120.000 C 265.810 120.000,260.545 122.701,259.541 123.383 C 259.042 123.723,258.540 124.000,258.425 124.000 C 258.309 124.000,257.745 124.319,257.170 124.709 C 256.595 125.099,254.662 126.240,252.875 127.245 C 251.088 128.251,248.532 129.732,247.196 130.536 C 245.860 131.341,244.698 132.000,244.613 132.000 C 244.529 132.000,243.878 132.375,243.167 132.833 C 241.346 134.007,239.618 135.042,237.875 136.001 C 237.050 136.455,235.981 137.050,235.500 137.324 C 235.019 137.597,234.119 138.100,233.500 138.442 C 232.881 138.784,232.143 139.274,231.859 139.532 C 231.575 139.789,231.267 140.000,231.174 140.000 C 231.080 140.000,230.520 140.366,229.927 140.813 C 228.057 142.223,225.963 143.702,223.750 145.177 C 222.994 145.680,221.685 146.634,220.842 147.296 C 218.935 148.793,219.034 148.799,217.033 147.050 C 213.683 144.121,210.835 142.491,207.125 141.383 C 205.887 141.013,204.734 140.666,204.563 140.613 C 204.042 140.451,204.111 57.177,204.632 56.744 C 204.918 56.506,205.722 56.467,207.820 56.587 C 209.363 56.676,212.425 56.851,214.625 56.976 C 216.825 57.102,219.356 57.323,220.250 57.467 C 221.144 57.612,223.169 57.853,224.750 58.003 C 226.331 58.152,228.188 58.377,228.875 58.501 C 229.563 58.626,230.856 58.857,231.750 59.014 C 236.328 59.818,244.953 61.726,246.375 62.248 C 246.650 62.349,247.606 62.623,248.500 62.857 C 249.394 63.090,250.491 63.387,250.938 63.516 C 251.384 63.645,252.116 63.853,252.563 63.978 C 255.287 64.741,265.518 68.424,265.862 68.765 C 265.993 68.894,266.247 69.000,266.428 69.000 C 266.608 69.000,267.289 69.236,267.940 69.525 C 268.592 69.814,269.350 70.135,269.625 70.240 C 270.415 70.541,274.300 72.402,278.250 74.371 C 298.334 84.386,314.689 97.773,329.261 116.129 C 332.404 120.087,332.423 119.977,328.686 119.408 C 324.229 118.729,320.547 118.234,318.250 118.003 C 317.081 117.886,315.478 117.709,314.688 117.611 C 313.053 117.407,312.783 117.804,313.740 119.008 C 314.009 119.347,314.881 120.547,315.677 121.674 C 316.474 122.801,318.312 125.276,319.762 127.174 C 321.212 129.072,323.232 131.806,324.249 133.250 C 325.267 134.694,326.504 136.381,326.998 137.000 C 328.781 139.232,333.784 147.151,336.316 151.750 C 337.601 154.083,341.500 161.949,341.500 162.208 C 341.500 162.343,341.714 162.885,341.975 163.414 C 342.804 165.092,344.000 167.766,344.000 167.943 C 344.000 168.088,344.873 170.513,345.505 172.125 C 346.776 175.363,347.542 178.241,347.125 178.207 C 346.701 178.172,341.454 176.208,339.875 175.494 C 336.125 173.796,334.097 173.785,334.976 175.467 C 335.585 176.634,336.750 179.221,336.750 179.407 C 336.750 179.485,336.910 179.904,337.106 180.337 C 337.455 181.111,339.346 185.917,340.268 188.375 C 340.987 190.292,343.014 197.516,344.337 202.875 C 345.140 206.130,346.200 213.226,347.027 220.875 C 347.431 224.613,347.342 239.956,346.886 245.250 C 346.541 249.254,345.821 255.290,345.609 255.951 C 345.452 256.445,345.118 256.181,341.211 252.465 C 339.239 250.590,336.781 248.283,335.750 247.340 C 334.720 246.397,332.804 244.613,331.493 243.375 C 330.183 242.137,328.439 240.510,327.618 239.759 C 326.797 239.008,323.988 236.368,321.375 233.894 C 318.762 231.420,315.781 228.612,314.750 227.655 C 313.719 226.699,311.750 224.835,310.375 223.514 C 309.000 222.193,306.975 220.279,305.875 219.259 C 304.775 218.240,302.803 216.387,301.494 215.141 C 300.184 213.895,298.320 212.144,297.351 211.250 C 296.382 210.356,295.091 209.165,294.482 208.602 C 293.873 208.039,289.775 203.898,285.375 199.399 C 280.975 194.900,277.012 190.941,276.568 190.601 L 275.760 189.982 266.703 189.994 C 261.115 190.001,257.551 190.099,257.399 190.251 C 257.243 190.407,257.120 198.906,257.063 213.580 L 256.973 236.662 259.924 239.660 C 261.547 241.308,267.038 246.915,272.125 252.119 C 277.212 257.323,282.584 262.794,284.063 264.277 L 286.750 266.973 286.750 274.729 L 286.750 282.485 288.188 283.394 C 290.604 284.922,293.250 288.480,293.250 290.202 C 293.250 290.485,293.361 291.011,293.498 291.369 C 293.972 292.616,293.190 296.471,292.102 298.250 C 287.074 306.475,274.606 304.798,271.859 295.528 C 270.628 291.372,272.862 285.760,276.688 283.399 L 277.750 282.744 277.750 277.114 L 277.750 271.485 274.810 268.430 C 269.890 263.317,256.381 249.651,251.915 245.268 C 249.599 242.996,247.518 240.796,247.290 240.381 C 246.914 239.696,246.863 237.327,246.750 215.178 C 246.641 193.821,246.578 190.700,246.250 190.479 C 245.730 190.130,236.690 190.467,235.288 190.889 C 229.712 192.566,217.928 202.866,211.708 211.500 C 207.311 217.604,203.331 225.386,201.735 231.000 C 201.560 231.619,201.322 232.232,201.208 232.362 C 201.094 232.493,201.000 232.902,201.000 233.271 C 201.000 235.419,200.024 235.439,199.971 233.292 L 199.943 232.125 199.737 233.125 C 199.189 235.793,200.731 236.512,201.346 233.875 C 201.604 232.766,203.241 227.761,203.676 226.750 C 208.649 215.189,217.432 203.517,225.750 197.414 C 226.644 196.759,227.544 196.087,227.750 195.922 C 228.593 195.248,233.703 192.079,234.750 191.581 C 235.733 191.114,236.510 191.025,240.900 190.871 L 245.924 190.695 246.091 191.910 C 246.183 192.578,246.252 203.505,246.244 216.192 C 246.232 236.625,246.275 239.352,246.622 240.083 C 246.978 240.834,252.041 246.043,270.625 264.775 L 277.125 271.327 277.201 276.892 L 277.276 282.458 276.195 283.202 C 268.541 288.468,269.980 300.385,278.631 303.371 C 288.801 306.881,297.792 296.141,292.394 286.929 C 291.673 285.700,288.935 283.000,288.408 283.000 C 287.077 283.000,287.000 282.524,287.000 274.301 L 287.000 266.622 279.851 259.373 C 271.383 250.788,265.911 245.213,261.053 240.222 L 257.497 236.568 257.561 213.597 L 257.625 190.625 266.752 190.559 L 275.878 190.494 280.627 195.286 C 292.914 207.685,300.111 214.706,304.764 218.832 C 305.513 219.495,307.419 221.295,309.001 222.832 C 310.584 224.368,312.834 226.517,314.001 227.607 C 315.169 228.698,316.914 230.329,317.879 231.232 C 318.844 232.136,320.419 233.607,321.379 234.501 C 327.258 239.977,330.613 243.119,332.491 244.911 C 333.665 246.030,335.411 247.662,336.371 248.536 C 337.331 249.410,339.188 251.147,340.496 252.396 C 345.931 257.584,345.772 257.523,346.221 254.585 C 349.225 234.955,348.082 214.116,343.007 196.000 C 342.719 194.969,342.326 193.563,342.135 192.875 C 341.709 191.342,340.647 188.099,340.294 187.250 C 340.151 186.906,339.449 185.106,338.733 183.250 C 337.489 180.023,336.034 176.513,335.443 175.313 C 334.924 174.259,336.311 174.514,340.625 176.264 C 348.975 179.652,348.932 179.666,346.762 174.375 C 346.649 174.100,346.137 172.694,345.624 171.250 C 342.560 162.625,337.948 153.240,332.177 143.886 C 331.268 142.413,327.574 136.982,326.897 136.125 C 326.463 135.575,325.104 133.719,323.877 132.000 C 322.649 130.281,321.127 128.200,320.495 127.375 C 314.902 120.076,313.497 117.988,314.188 118.004 C 314.691 118.016,318.842 118.509,320.500 118.754 C 321.531 118.906,323.163 119.121,324.125 119.232 C 325.087 119.343,327.263 119.626,328.959 119.862 C 330.655 120.097,332.103 120.230,332.177 120.157 C 332.401 119.932,332.046 118.894,331.565 118.370 C 331.316 118.098,330.835 117.481,330.498 117.000 C 329.897 116.143,327.397 112.988,326.338 111.750 C 322.167 106.873,320.435 104.997,316.849 101.476 C 296.539 81.526,271.858 67.945,243.125 60.909 C 241.200 60.438,239.231 59.973,238.750 59.875 C 238.269 59.778,237.425 59.596,236.875 59.471 C 236.325 59.346,235.256 59.138,234.500 59.009 C 233.744 58.881,232.450 58.649,231.625 58.496 C 227.804 57.785,221.573 57.046,216.049 56.649 C 208.161 56.082,204.685 55.970,204.188 56.265 M259.691 132.234 C 258.902 132.634,257.946 133.176,257.566 133.440 C 257.186 133.703,256.706 133.991,256.500 134.079 C 256.294 134.167,255.675 134.518,255.125 134.858 C 254.575 135.199,253.450 135.858,252.625 136.324 C 251.244 137.103,247.887 139.066,246.292 140.027 C 245.190 140.691,243.965 141.366,242.250 142.254 C 239.213 143.826,239.217 143.802,241.438 146.188 C 248.360 153.625,260.828 150.103,262.456 140.250 C 262.961 137.194,262.979 136.373,262.584 134.375 C 261.945 131.142,261.904 131.111,259.691 132.234 M261.691 132.688 C 263.304 137.097,262.101 142.847,258.851 146.253 C 257.560 147.607,256.869 148.050,254.025 149.351 C 253.163 149.745,248.337 149.690,247.125 149.272 C 244.240 148.278,242.262 146.874,240.745 144.743 L 240.243 144.039 240.934 143.558 C 241.314 143.294,242.581 142.570,243.750 141.949 C 245.791 140.865,246.960 140.192,249.125 138.856 C 249.675 138.517,250.294 138.166,250.500 138.075 C 250.706 137.985,250.931 137.847,251.000 137.768 C 251.069 137.689,251.631 137.363,252.250 137.044 C 252.869 136.724,254.530 135.767,255.941 134.919 C 261.456 131.602,261.314 131.657,261.691 132.688 M268.714 199.202 C 267.839 199.303,267.713 201.337,267.823 213.532 L 267.904 222.439 268.604 223.282 C 268.990 223.746,273.768 228.625,279.222 234.125 C 284.677 239.625,289.909 244.950,290.849 245.959 L 292.558 247.792 292.439 249.209 C 291.506 260.231,304.674 266.492,313.048 259.007 C 316.943 255.527,318.114 249.631,315.858 244.863 C 315.247 243.570,312.196 240.000,311.703 240.000 C 311.565 240.000,311.154 239.791,310.789 239.535 C 307.734 237.397,303.372 237.421,298.223 239.606 C 297.926 239.732,296.287 238.230,291.915 233.826 L 286.008 227.875 286.004 221.725 L 286.000 215.575 285.313 214.558 C 284.371 213.166,280.000 208.457,275.022 203.474 C 270.749 199.196,270.458 199.000,268.714 199.202 M270.450 199.854 C 271.797 200.560,282.887 211.930,284.711 214.475 L 285.500 215.575 285.500 221.806 L 285.500 228.037 291.614 234.142 C 297.145 239.665,297.782 240.225,298.301 240.020 C 298.617 239.895,299.325 239.602,299.875 239.367 C 304.672 237.321,309.438 238.234,313.126 241.904 C 314.695 243.465,316.250 246.094,316.250 247.186 C 316.250 247.455,316.375 248.035,316.529 248.475 C 317.327 250.764,315.572 255.834,313.119 258.326 C 310.697 260.788,305.556 262.591,303.253 261.789 C 302.798 261.630,302.111 261.500,301.727 261.500 C 301.344 261.500,300.960 261.387,300.875 261.250 C 300.790 261.113,300.511 261.000,300.254 261.000 C 299.525 261.000,296.415 258.757,295.246 257.387 C 293.458 255.292,292.750 253.010,292.750 249.337 L 292.750 247.199 288.021 242.412 C 285.420 239.779,280.121 234.419,276.245 230.500 C 272.370 226.581,268.986 223.037,268.725 222.625 C 268.127 221.677,267.973 199.904,268.563 199.666 C 269.137 199.434,269.769 199.497,270.450 199.854 M322.712 202.220 C 318.981 204.586,319.209 209.462,323.134 211.253 C 326.794 212.923,330.509 210.468,330.496 206.388 C 330.483 202.563,325.977 200.150,322.712 202.220 M327.221 202.235 C 329.723 203.512,330.755 205.987,329.729 208.250 C 328.092 211.860,324.450 212.426,321.625 209.509 C 318.330 206.106,322.974 200.069,327.221 202.235 M231.500 205.778 C 231.156 206.060,230.310 206.815,229.619 207.457 C 228.928 208.100,227.475 209.412,226.391 210.375 C 224.044 212.458,223.248 213.282,223.255 213.622 C 223.257 213.761,223.201 224.574,223.131 237.651 L 223.003 261.427 223.564 262.450 C 224.060 263.354,227.230 266.971,232.260 272.370 C 236.025 276.412,236.157 276.627,236.350 279.000 C 236.445 280.169,236.585 281.635,236.661 282.259 L 236.800 283.394 235.039 284.704 C 224.388 292.624,229.628 308.762,242.875 308.836 C 253.549 308.896,259.855 297.447,254.214 288.250 C 253.021 286.306,248.910 283.000,247.685 283.000 C 246.452 283.000,246.318 282.522,246.126 277.444 C 245.901 271.499,246.867 273.057,236.643 262.158 C 234.983 260.389,233.552 258.758,233.463 258.533 C 233.374 258.309,233.356 246.500,233.423 232.292 C 233.489 218.084,233.476 206.187,233.392 205.855 C 233.202 205.096,232.374 205.062,231.500 205.778 M233.002 232.327 L 233.004 258.875 235.459 261.500 C 236.809 262.944,239.620 265.981,241.705 268.250 L 245.496 272.375 245.523 275.375 C 245.538 277.025,245.623 279.327,245.712 280.492 C 245.893 282.839,245.630 282.514,248.375 283.783 C 260.798 289.526,256.795 308.257,243.125 308.347 C 229.833 308.435,224.730 291.425,235.972 284.500 L 236.987 283.875 236.991 282.250 C 236.994 281.356,236.889 279.692,236.758 278.551 L 236.519 276.476 234.697 274.441 C 233.695 273.322,232.706 272.223,232.500 271.999 C 232.294 271.775,231.169 270.534,230.000 269.241 C 228.831 267.949,226.962 265.900,225.846 264.687 C 223.272 261.891,223.487 264.669,223.675 236.594 L 223.832 213.230 224.728 212.456 C 225.222 212.031,226.728 210.668,228.076 209.428 C 231.108 206.639,232.540 205.495,232.800 205.656 C 232.910 205.724,233.001 217.726,233.002 232.327 M302.750 244.960 C 297.567 247.569,297.866 253.620,303.268 255.448 C 305.658 256.257,310.000 254.013,310.000 251.970 C 310.000 251.728,310.113 251.460,310.250 251.375 C 310.387 251.290,310.500 250.731,310.500 250.133 C 310.500 246.454,305.893 243.379,302.750 244.960 M307.156 245.645 C 310.674 247.835,310.963 251.229,307.864 253.957 C 304.610 256.822,299.528 254.439,299.505 250.038 C 299.487 246.404,304.111 243.749,307.156 245.645 M240.831 290.024 C 234.762 292.357,235.957 300.769,242.418 301.195 C 245.403 301.392,247.619 299.885,248.598 296.991 C 250.052 292.698,245.199 288.344,240.831 290.024 M245.019 290.598 C 246.404 291.180,247.686 292.650,248.125 294.160 C 249.607 299.259,243.352 303.078,239.259 299.574 C 234.519 295.518,239.237 288.166,245.019 290.598 " stroke="none" fill="#eeb6a3" fill-rule="evenodd"></path></g></svg>